HIERARCHY
ROOT Hips
{
	OFFSET	0.00	0.00	0.00
	CHANNELS 6 Xposition Yposition Zposition Zrotation Xrotation Yrotation
	JOINT LeftUpLeg
	{
		OFFSET	 0.126116	-0.014019	-0.065224
		CHANNELS 3 Zrotation Xrotation Yrotation
		JOINT LeftLeg
		{
			OFFSET	 0.000000	 0.000000	 0.569914
			CHANNELS 3 Zrotation Xrotation Yrotation
			JOINT LeftFoot
			{
				OFFSET	 0.000000	 0.000000	 0.544423
				CHANNELS 3 Zrotation Xrotation Yrotation
				JOINT LeftToeBase
				{
					OFFSET	 0.000000	 0.000000	 0.207117
					CHANNELS 3 Zrotation Xrotation Yrotation
					End Site
					{
						OFFSET	 0.000000	 0.000000	 0.207117
					}
				}
			}
		}
	}
	JOINT RightUpLeg
	{
		OFFSET	-0.124023	-0.008373	-0.065224
		CHANNELS 3 Zrotation Xrotation Yrotation
		JOINT RightLeg
		{
			OFFSET	 0.000000	 0.000000	 0.570047
			CHANNELS 3 Zrotation Xrotation Yrotation
			JOINT RightFoot
			{
				OFFSET	 0.000000	 0.000000	 0.544354
				CHANNELS 3 Zrotation Xrotation Yrotation
				JOINT RightToeBase
				{
					OFFSET	 0.000000	 0.000000	 0.207540
					CHANNELS 3 Zrotation Xrotation Yrotation
					End Site
					{
						OFFSET	 0.000000	 0.000000	 0.207540
					}
				}
			}
		}
	}
	JOINT Spine
	{
		OFFSET	 0.000184	-0.007763	 0.117403
		CHANNELS 3 Zrotation Xrotation Yrotation
		JOINT Spine1
		{
			OFFSET	 0.000000	 0.000000	 0.137269
			CHANNELS 3 Zrotation Xrotation Yrotation
			JOINT Spine2
			{
				OFFSET	 0.000000	 0.000000	 0.156879
				CHANNELS 3 Zrotation Xrotation Yrotation
				JOINT LeftShoulder
				{
					OFFSET	 0.080501	-0.002496	 0.160144
					CHANNELS 3 Zrotation Xrotation Yrotation
					JOINT LeftArm
					{
						OFFSET	 0.000000	 0.000000	 0.164363
						CHANNELS 3 Zrotation Xrotation Yrotation
						JOINT LeftForeArm
						{
							OFFSET	 0.000000	 0.000000	 0.364576
							CHANNELS 3 Zrotation Xrotation Yrotation
							JOINT LeftHand
							{
								OFFSET	 0.000000	 0.000000	 0.360812
								CHANNELS 3 Zrotation Xrotation Yrotation
								JOINT LeftHandIndex1
								{
									OFFSET	 0.000000	 0.000000	 0.086006
									CHANNELS 3 Zrotation Xrotation Yrotation
									JOINT LeftHandIndex2
									{
										OFFSET	 0.000000	 0.000000	 0.047236
										CHANNELS 3 Zrotation Xrotation Yrotation
										JOINT LeftHandIndex3
										{
											OFFSET	-0.004284	-0.000551	 0.038166
											CHANNELS 3 Zrotation Xrotation Yrotation
											End Site
											{
												OFFSET	-0.004284	-0.000551	 0.038166
											}
										}
									}
								}
							}
						}
					}
				}
				JOINT Neck
				{
					OFFSET	 0.000000	 0.000000	 0.176489
					CHANNELS 3 Zrotation Xrotation Yrotation
					JOINT Head
					{
						OFFSET	 0.000000	-0.001747	 0.077940
						CHANNELS 3 Zrotation Xrotation Yrotation
						End Site
						{
							OFFSET	 0.000000	-0.001747	 0.077940
						}
					}
				}
				JOINT RightShoulder
				{
					OFFSET	-0.080363	 0.000306	 0.159706
					CHANNELS 3 Zrotation Xrotation Yrotation
					JOINT RightArm
					{
						OFFSET	 0.000000	 0.000000	 0.164196
						CHANNELS 3 Zrotation Xrotation Yrotation
						JOINT RightForeArm
						{
							OFFSET	 0.000000	 0.000000	 0.365611
							CHANNELS 3 Zrotation Xrotation Yrotation
							JOINT RightHand
							{
								OFFSET	 0.000000	 0.000000	 0.360648
								CHANNELS 3 Zrotation Xrotation Yrotation
								JOINT RightHandIndex1
								{
									OFFSET	 0.000000	 0.000000	 0.069977
									CHANNELS 3 Zrotation Xrotation Yrotation
									JOINT RightHandIndex2
									{
										OFFSET	 0.000000	 0.000000	 0.052305
										CHANNELS 3 Zrotation Xrotation Yrotation
										JOINT RightHandIndex3
										{
											OFFSET	 0.009002	-0.000782	 0.042196
											CHANNELS 3 Zrotation Xrotation Yrotation
											End Site
											{
												OFFSET	 0.009002	-0.000782	 0.042196
											}
										}
									}
								}
							}
						}
					}
				}
			}
		}
	}
}
MOTION
Frames:    11
Frame Time: 0.03333334
 0.013153	 0.045783	 1.202160	 4.977613	-1.102589	-2.724793	-3.379606	-12.329170	-171.475200	 0.961552	-38.625480	 0.380061	 49.907640	 80.744000	-54.045020	-2.369639	 31.574550	-0.069009	-2.083683	-30.741000	-175.641100	 10.771790	-51.001070	 9.008374	 21.573980	 76.212570	-18.421120	 2.358843	 33.019450	 0.103673	-7.090333	 8.568119	 2.057724	-2.074008	 1.924284	-1.492497	 3.247477	-2.049258	 1.638546	-93.950200	 58.950530	 175.364900	 17.667980	 36.661250	-40.793670	-1.626223	-0.047873	-0.758437	-2.782787	-27.116070	-8.717061	-4.870155	 19.241930	-2.790653	-3.878828	 21.507340	 2.200009	-4.806300	 5.568578	 0.145619	-0.073005	-5.078554	 0.185615	 1.129538	 1.898994	 2.723932	 89.776430	 61.651150	 179.986500	-21.075810	 54.934310	 11.332870	-1.267530	-2.321739	 12.466260	-4.009454	-12.602630	 0.735319	 6.292384	 24.725660	-0.538735	 1.902767	 44.560740	-7.008502	 0.550257	 24.170910	 3.556132
 0.012663	 0.036169	 1.201882	 5.262767	-0.858418	-2.732951	-3.663536	-12.034920	-171.527700	 1.092528	-38.466100	 0.460216	 50.736160	 80.893570	-54.982790	-2.369153	 31.655340	-0.070843	-2.812895	-31.674990	-175.578000	 10.982230	-49.835900	 9.024175	 24.686220	 77.331020	-21.966190	 2.358943	 33.004510	 0.103327	-7.469095	 8.400161	 1.984288	-2.092031	 1.913340	-1.437362	 3.192681	-2.159724	 1.625260	-94.017050	 58.965940	 175.220500	 17.531620	 36.024140	-41.213840	-1.884385	-0.044287	-0.846165	-3.122578	-28.128960	-9.269928	-4.868157	 19.294250	-2.794317	-3.875195	 21.553700	 2.196320	-4.805481	 5.578238	 0.145055	-0.058248	-5.090901	 0.203681	 1.118943	 1.842779	 2.681007	 89.751240	 61.694570	 179.926400	-20.884050	 55.261160	 10.580060	-1.348833	-2.380211	 12.763980	-3.841764	-13.367620	 0.708673	 6.286207	 24.255790	-0.541761	 1.959892	 44.092140	-7.059310	 0.647476	 23.741950	 3.507300
 0.010966	 0.000464	 1.200588	 6.033686	-0.071829	-2.822737	-4.495950	-10.678510	-171.665200	 1.401223	-37.660240	 0.640661	 54.229640	 81.446370	-58.745320	-2.367588	 31.913240	-0.076696	-4.887673	-34.345120	-175.466900	 11.161460	-44.573630	 8.426836	 35.303300	 79.010170	-33.997800	 2.359410	 32.934630	 0.101709	-8.576078	 7.820020	 1.795150	-2.173124	 2.024643	-1.243675	 3.022175	-2.545300	 1.566539	-94.219360	 58.993290	 174.785300	 16.686270	 33.820510	-42.652100	-2.617435	-0.031527	-1.124012	-4.263880	-31.332080	-10.720530	-4.859628	 19.505740	-2.806870	-3.862745	 21.712350	 2.183668	-4.801836	 5.621206	 0.142535	-0.019433	-5.127162	 0.264445	 1.059962	 1.681667	 2.580750	 89.664120	 61.839710	 179.716800	-20.240910	 56.296940	 8.285030	-1.740682	-2.478393	 13.116410	-3.438867	-15.762580	 0.569216	 6.264344	 22.757090	-0.568257	 2.126596	 42.674610	-7.206785	 0.972763	 22.283140	 3.348317
 0.009075	-0.048583	 1.197921	 6.437773	 0.712735	-3.233594	-5.010102	-8.120504	-171.535600	 1.579942	-35.900190	 0.719682	 59.405760	 82.055540	-64.122060	-2.364062	 32.471780	-0.089474	-5.597282	-36.099060	-174.974400	 10.722460	-35.502610	 6.705847	 37.535780	 77.005650	-37.654380	 2.359959	 32.852660	 0.099808	-9.593726	 7.048857	 1.902720	-2.258814	 2.644259	-0.997734	 2.865359	-3.087555	 1.457374	-94.402080	 58.980000	 174.397900	 15.126180	 31.205670	-44.466550	-3.964567	-0.006933	-1.464037	-5.992732	-35.358710	-11.271160	-4.840989	 19.917450	-2.821060	-3.842645	 21.967080	 2.163241	-4.788612	 5.776865	 0.133395	 0.001684	-5.207220	 0.325048	 0.941905	 1.504651	 2.557187	 89.525140	 61.989140	 179.379700	-19.200370	 57.309770	 6.028512	-2.723397	-2.401295	 12.155670	-3.520488	-18.594210	-0.203722	 6.227903	 20.697250	-0.642651	 2.325555	 40.879250	-7.381086	 1.431895	 20.162890	 3.135885
 0.006936	-0.091200	 1.194027	 6.567719	 1.047683	-3.553348	-5.327712	-5.422961	-171.452800	 1.674228	-34.201010	 0.742908	 61.161820	 82.366400	-65.966170	-2.356584	 33.576090	-0.115089	-4.855926	-36.416980	-174.344300	 9.885260	-27.703940	 4.993085	 55.863390	 77.556350	-56.404120	 2.350343	 34.209760	 0.131630	-10.496320	 6.520401	 2.045017	-2.301510	 3.455181	-0.817299	 2.779923	-3.616012	 1.373338	-94.487060	 58.955280	 174.220800	 13.672080	 29.580020	-45.720580	-4.956191	 0.018228	-1.771212	-7.876315	-38.389920	-11.990280	-4.824608	 20.283350	-2.835674	-3.820050	 22.251320	 2.140299	-4.765417	 6.048961	 0.117326	 0.031834	-5.296588	 0.346315	 0.875218	 1.325551	 2.490636	 89.428450	 62.050720	 179.144300	-17.868850	 57.883310	 4.245895	-3.719633	-2.175826	 10.734630	-3.690106	-21.303190	-1.213235	 6.188974	 18.634840	-0.718061	 2.586008	 38.343540	-7.606126	 1.861269	 18.116780	 2.950528
 0.003819	-0.133788	 1.187335	 6.839828	 1.090101	-3.780358	-5.809426	-2.491207	-171.480500	 1.878541	-32.777010	 0.826175	 58.530320	 82.456180	-63.452720	-2.338494	 35.904610	-0.170829	-4.567483	-38.196030	-173.935000	 10.359640	-23.797280	 4.533636	 56.663660	 75.750570	-58.236710	 2.335056	 36.106940	 0.177484	-11.684500	 6.522924	 2.145956	-2.317563	 3.815638	-0.650569	 2.702598	-4.175773	 1.289564	-94.545820	 58.899820	 174.104900	 12.254790	 28.680310	-46.574100	-5.422577	 0.044774	-2.106332	-10.469110	-41.866190	-14.055830	-4.842887	 20.495210	-3.004130	-3.791945	 22.601990	 2.111755	-4.728551	 6.479306	 0.091668	 0.101837	-5.391456	 0.355408	 0.865556	 1.199617	 2.233361	 89.358950	 61.977620	 178.979000	-16.255410	 58.262950	 1.581574	-4.520934	-2.145095	 10.479820	-3.523365	-24.505440	-2.072845	 6.163390	 16.443210	-0.699901	 2.853181	 35.501900	-7.832704	 2.305366	 15.938660	 2.773053
-0.001584	-0.182355	 1.177724	 7.080051	 1.034488	-3.520483	-6.501067	 0.913461	-172.066600	 2.380549	-31.404020	 1.056955	 44.987040	 81.509770	-50.128570	-2.287624	 40.892020	-0.299807	-4.069127	-41.273070	-174.039100	 10.052160	-22.686200	 4.211854	 37.783040	 71.826420	-39.389520	 2.338650	 35.684610	 0.167126	-13.129040	 6.438557	 1.928506	-2.266504	 4.503689	-0.619323	 2.592482	-4.754795	 1.210186	-94.521390	 59.197410	 174.107600	 10.848990	 28.387040	-47.567020	-5.980037	 0.081259	-2.482430	-14.210010	-45.466990	-17.227560	-4.876683	 20.598030	-3.231188	-3.765280	 22.931760	 2.084677	-4.678782	 7.056044	 0.056807	 0.178061	-5.481280	 0.280154	 0.918061	 1.137719	 2.034406	 89.356040	 61.669490	 178.983600	-14.757250	 58.372260	-1.767408	-5.074143	-2.442720	 11.757220	-3.360697	-27.985170	-2.663229	 6.185913	 14.129780	-0.446848	 3.014597	 33.656050	-7.967201	 2.758283	 13.656240	 2.607719
-0.007896	-0.230247	 1.169332	 7.313150	 0.699360	-2.696242	-6.715565	 4.792633	-173.380200	 1.847945	-29.516930	 0.736795	 27.596800	 78.333850	-31.815590	-2.164001	 48.716730	-0.540006	-2.174851	-42.713030	-174.050100	 6.762206	-22.337910	 2.872283	 20.491840	 66.159490	-18.331900	 2.340742	 35.433420	 0.161003	-14.528670	 6.474854	 1.107616	-2.230578	 5.301259	-0.405904	 2.444505	-5.139149	 0.966406	-94.456420	 59.364250	 174.219100	 9.788397	 28.229870	-48.264000	-6.708300	 0.122980	-2.832328	-17.025970	-47.529290	-19.277850	-4.892865	 20.710950	-3.361784	-3.754216	 23.067700	 2.073452	-4.628423	 7.634870	 0.021255	 0.256822	-5.475968	 0.242812	 0.979031	 1.214414	 2.190613	 89.353810	 61.430940	 178.986800	-13.652120	 58.263980	-3.993082	-5.377640	-2.558006	 12.458110	-3.320928	-30.758550	-2.663330	 6.268241	 12.068370	 0.017238	 3.127356	 32.305010	-8.059957	 3.110357	 11.842220	 2.490573
-0.015134	-0.296069	 1.161853	 8.390677	-0.114055	-1.727156	-6.337029	 10.169360	-175.438400	-0.355564	-27.149280	-0.323210	 13.675510	 69.801850	-14.728180	-1.932186	 57.241210	-0.892216	 1.109369	-41.396530	-173.489700	 6.126476	-21.957700	 2.584940	 3.945649	 57.141990	 1.816822	 2.333454	 36.291680	 0.182040	-16.786650	 6.781371	 0.161609	-2.505580	 6.043132	-0.384402	 2.155581	-5.393075	 0.738443	-94.389690	 59.042420	 174.414500	 8.960719	 27.769880	-48.408650	-7.730124	 0.184036	-3.264703	-18.899240	-48.119230	-20.277430	-4.896254	 20.930940	-3.455538	-3.733137	 23.325290	 2.052055	-4.564629	 8.360877	-0.024129	 0.374430	-5.410096	 0.290323	 0.983712	 1.484791	 2.390469	 89.208920	 61.414990	 178.644900	-12.522760	 57.942550	-4.743058	-5.216034	-1.977017	 11.025650	-2.107035	-33.381240	-1.042204	 6.344710	 9.790743	 0.391666	 3.316154	 29.922750	-8.212858	 3.447425	 10.075600	 2.388101
-0.021584	-0.352382	 1.157119	 9.617088	-0.601305	-0.831963	-6.611520	 13.486300	-177.219800	 0.763311	-27.233050	 0.187893	 6.760542	 58.645830	-6.999537	-1.246771	 68.849470	-1.733615	-0.569789	-39.791900	-175.782900	 7.475860	-23.088470	 3.247827	 0.029163	 51.270550	 5.565625	 2.344079	 35.021760	 0.151040	-18.695560	 6.781738	-0.431165	-3.048273	 6.489932	-1.057840	 1.820089	-5.480088	 0.889152	-94.288280	 59.218120	 174.604000	 9.004133	 27.849100	-48.149250	-7.950924	 0.234427	-3.616208	-19.865050	-47.341680	-21.456970	-4.840985	 21.186260	-3.214437	-3.693106	 23.809770	 2.011425	-4.524057	 8.818500	-0.053205	 0.400946	-5.345731	 0.258313	 0.864245	 1.757123	 2.330307	 89.065440	 61.036770	 178.327900	-11.753010	 57.296620	-5.550570	-4.086937	-1.665199	 11.010500	 0.195252	-34.636780	 1.080710	 6.362060	 8.784178	 0.473387	 3.379063	 29.094210	-8.263084	 3.608144	 9.223712	 2.342653
-0.030471	-0.425119	 1.153727	 10.115230	-0.921650	 0.315293	-0.813383	 15.746630	 177.756000	 1.669598	-29.551570	 0.649583	 0.990719	 43.114120	 4.558231	-1.272288	 68.576280	-1.704506	-3.165666	-37.433980	-179.424700	 6.556528	-24.840630	 3.086586	-0.065680	 48.556240	 7.113052	 2.364552	 32.147250	 0.083565	-20.155860	 6.742547	-1.103642	-3.567553	 6.464106	-1.859893	 1.483807	-5.448318	 0.986685	-94.123790	 59.815150	 174.868000	 9.546287	 28.771570	-47.274890	-7.315934	 0.298899	-4.058822	-20.368390	-45.985120	-22.688080	-4.777210	 21.393590	-2.899950	-3.636126	 24.488550	 1.953611	-4.481535	 9.294575	-0.083843	 0.359293	-5.364499	 0.184657	 0.623060	 1.963745	 2.275956	 88.993520	 60.353910	 178.201700	-11.350670	 56.440220	-6.838492	-2.280981	-1.557167	 12.528310	 3.491610	-35.781070	 3.666183	 6.394446	 8.827098	 0.602082	 3.386731	 28.991900	-8.269176	 3.675101	 8.867080	 2.324377
